<?xml version="1.0" encoding="utf-8" ?><svg xmlns="http://www.w3.org/2000/svg" xmlns:xlink="http://www.w3.org/1999/xlink" width="512" height="512" viewBox="0 0 512 512"><path fill="#F9F498" d="M319.389 64.1102C323.509 63.535 334.698 64.1988 338.919 64.8881C342.898 65.5378 348.215 67.2975 352.04 68.4185C369.906 73.5524 383.929 85.7145 394.107 100.949C397.679 106.295 400.47 111.177 403.653 116.742C406.198 121.191 411.697 125.238 414.519 129.853C417.319 134.433 419.682 138.27 421.117 143.534C425.465 155.088 424.409 164.091 423.408 176.07C423.226 180.101 421.79 184.128 422.407 188.172C423.638 196.236 426.952 203.647 428.742 211.59C429.787 216.229 431.188 220.717 432.094 225.401C435.781 244.729 435.77 264.58 432.063 283.904C430.177 294.029 427.176 304.468 423.797 314.177C422.337 318.375 420.256 322.573 418.375 326.617C401.765 361.945 376.062 392.224 343.901 414.353C314.01 434.901 278.661 446.049 242.39 446.366C236.558 446.378 231.478 445.537 225.791 445.245C215.234 444.703 206.187 443.393 195.806 441.462C188.778 440.066 170.614 433.844 165.197 433.956C142.99 434.413 125.269 437.848 106.488 422.288C88.638 407.499 86.8245 389.285 87.7829 367.585C87.5077 363.258 88.6244 355.033 87.4256 351.155C81.9446 333.426 78.2579 319.218 77.0658 300.425C73.234 241.395 103.185 187.138 147.168 149.459C154.414 143.252 161.686 138.062 169.391 132.515C175.193 127.458 186.536 122.227 191.744 117.793C196.252 113.956 192.627 98.2002 200.161 91.3129C210.985 81.4172 222.964 85.4363 235.504 86.8642C252.579 89.2126 267.295 80.983 282.582 75.1103C294.151 70.6656 306.919 64.745 319.389 64.1102Z"/><path fill="#FEFEFD" d="M320.921 70.3508C327.136 69.5591 340.601 70.9439 346.466 72.7554C349.925 73.824 360.453 77.5068 363.402 79.2321C373.417 85.1692 383.565 93.8823 389.429 104.016C394.632 113.008 396.718 121.109 405.088 127.934C407.797 130.142 412.441 136.91 414.218 140.036C419.425 149.195 419.921 160.904 418.476 171.132C417.687 176.905 416.405 184.178 417.096 189.977C418.203 199.267 422.321 208.184 424.629 217.424C430.32 240.756 430.677 265.071 425.674 288.561C422.91 301.454 418.11 314.332 412.615 326.325C394.797 365.212 363.805 397.159 326.901 418.424C311.433 427.337 293.854 433.937 276.453 437.695C271.609 438.742 266.819 440.088 261.885 440.7C238.196 443.329 213.072 441.718 190.11 435.163C181.298 433.318 172.314 428.757 163.642 428.63C155.005 428.47 146.398 431.236 137.728 430.571C110.005 428.5 88.9998 402.603 93.8377 374.879C94.0577 373.618 94.1425 372.235 94.3843 370.977C96.1354 362.229 95.348 354.106 92.2171 345.788C91.7327 344.501 91.3966 342.933 90.9371 341.62C70.4047 282.955 91.4009 217.662 131.671 172.611C134.793 169.119 138.505 166.134 141.718 162.775C155.465 148.4 172.192 136.755 189.579 127.189C192.765 125.43 199.556 122.294 201.849 120.127C201.083 117.03 200.22 113.884 199.868 110.71C199.035 103.197 201.439 96.6126 208.007 92.5851C217.849 86.55 226.8 92.334 236.826 94.0157C240.502 94.6322 244.202 94.1677 247.868 93.7019C261.111 91.9388 273.543 86.7271 285.373 80.732C290.059 78.3574 295.709 76.3923 300.637 74.5411C307.042 72.1349 314.124 71.0226 320.921 70.3508Z"/><defs><linearGradient id="gradient_0" gradientUnits="userSpaceOnUse" x1="347.15649" y1="391.18939" x2="166.79823" y2="155.13736"><stop offset="0" stop-color="#C7E255"/><stop offset="1" stop-color="#FFE94C"/></linearGradient></defs><path fill="url(#gradient_0)" d="M216.852 125.694C214.204 120.218 208.548 110.902 210.783 105.323C211.343 103.924 212.763 101.797 214.249 101.287C219.884 99.3541 228.626 104.069 234.759 104.83C239.647 105.438 240.408 105.807 245.386 105.167C255.763 103.832 267.051 100.887 276.719 96.9417C281.239 95.0971 287.651 91.6977 292.32 89.5234C313.228 79.7859 332.596 77.9924 354.402 87.07C367.931 92.7018 379.981 106.676 385.897 120.096C387.012 122.624 388.275 126.913 389.135 129.666C391.943 130.291 398.842 136.691 400.741 139.07C407.899 148.037 409.46 158.374 407.86 169.492C406.78 177.004 404.859 184.019 406.117 191.671C407.373 198.802 410.008 205.71 412.132 212.641C417.563 230.367 419.802 250.456 417.801 268.963C412.693 316.2 385.712 360.473 349.3 390.304C345.575 393.356 341.621 396.056 337.664 398.789C301.065 425.285 255.408 436.691 210.784 428.623C195.905 425.932 181.99 421.249 167.366 418.089C158.299 416.131 145.553 421.194 135.396 419.552C119.991 417.061 108.204 405.402 104.71 390.248C102.303 379.144 107.349 369 106.176 358.116C105.252 349.535 101.982 340.855 99.4845 332.631C94.6284 316.416 92.7869 298.855 94.4984 282.002C95.2348 274.752 96.7415 263.701 98.4795 256.772C104.756 232.453 115.994 209.695 131.488 189.928C136.666 183.373 143.296 176.603 148.892 170.328C152.149 166.808 156.587 164.026 160.015 160.785C171.164 150.247 184.575 142.614 197.82 135.058C202.739 132.251 212.884 129.018 216.852 125.694Z"/><defs><linearGradient id="gradient_1" gradientUnits="userSpaceOnUse" x1="295.35727" y1="84.578232" x2="306.82761" y2="182.49304"><stop offset="0" stop-color="#D9E45F"/><stop offset="1" stop-color="#89BD7B"/></linearGradient></defs><path fill="url(#gradient_1)" d="M216.852 125.694C214.204 120.218 208.548 110.902 210.783 105.323C211.343 103.924 212.763 101.797 214.249 101.287C219.884 99.3541 228.626 104.069 234.759 104.83C239.647 105.438 240.408 105.807 245.386 105.167C255.763 103.832 267.051 100.887 276.719 96.9417C281.239 95.0971 287.651 91.6977 292.32 89.5234C313.228 79.7859 332.596 77.9924 354.402 87.07C367.931 92.7018 379.981 106.676 385.897 120.096C387.012 122.624 388.275 126.913 389.135 129.666C389.094 133.187 389.823 143.183 388.824 146.211C388.531 145.317 388.899 141.089 389.059 140.018L388.831 139.888C386.738 141.154 382.681 151.162 380.765 152.056C379.809 153.962 376.347 156.808 374.736 158.442C369.751 163.5 364.013 167.641 358.185 171.658C352.177 175.798 345.715 177.934 338.859 180.21C326.103 184.402 312.527 185.472 299.272 183.329C294.864 182.612 289.814 181.288 285.438 180.261C274.053 178.115 268.312 175.093 258.679 169.15C242.805 159.356 229.794 146.658 220.089 130.664C219.134 129.091 218.064 127.06 216.852 125.694Z"/><path fill="#95BF7A" d="M358.723 147.214C361.61 145.288 366.736 143.85 369.998 142.184C371.37 141.502 371.957 140.151 373.68 140.028C376.498 139.827 378.318 142.194 381.092 140.423C382.042 139.816 384.585 141.449 385.574 141.977C386.464 141.366 386.721 139.912 387.707 138.839C387.17 141.658 382.436 149.002 380.72 151.639L380.765 152.056C379.809 153.962 376.347 156.808 374.736 158.442C369.751 163.5 364.013 167.641 358.185 171.658C352.177 175.798 345.715 177.934 338.859 180.21C326.103 184.402 312.527 185.472 299.272 183.329C294.864 182.612 289.814 181.288 285.438 180.261C288.834 179.705 289.371 181.094 291.78 180.745C291.101 180.43 290.579 180.258 290.058 179.722L290.306 179.485C291.77 179.293 293.024 179.483 294.494 179.616C294.601 180.191 294.499 179.915 294.813 180.438C295.458 180.417 295.658 180.422 296.298 180.494L296.44 180.899C295.973 181.474 296.046 181.233 295.888 181.888L296.301 181.92L296.994 181.025C297.922 180.615 300.067 180.848 301.079 181.049C301.863 181.681 301.625 181.572 301.929 182.801C302.735 183.178 302.804 182.969 303.895 182.779C306 180.547 305.485 176.429 308.416 175.039C314.085 172.35 320.09 171.425 324.851 167.081C326.858 165.25 332.241 162.55 334.983 162.082C339.737 161.164 343.321 163.483 347.034 166.241C347.177 167.132 347.202 168.487 348.026 168.925C349.003 168.002 348.861 165.263 350.216 163.799C353.558 160.189 350.025 151.138 356.776 150.116C357.984 149.933 358.394 148.321 358.723 147.214Z"/><path fill="#F9F498" d="M347.494 119.088C356.911 117.667 361.222 122.159 363.52 130.672C365.122 136.611 363.892 139.759 357.705 141.335C352.048 139.848 351.935 136.308 350.16 131.313C342.601 137.69 337.674 144.261 327.509 147.863C313.801 152.719 299.112 152.783 285.836 146.999C282.436 145.521 279.16 143.772 276.041 141.767C273.336 140.016 269.027 137.224 268.415 133.854C268.078 131.922 268.51 129.934 269.62 128.316C273.882 122.205 278.698 127.238 282.501 130.083C296.982 140.925 316.798 141.209 331.584 130.785C338.454 125.847 337.917 120.504 347.494 119.088Z"/><path fill="#F9F498" d="M213.4 163.109C244.828 163.593 237.274 196.49 223.122 212.913C210.174 227.94 196.206 238.554 175.825 240.702C169.174 240.966 163.869 239.822 158.503 235.504C155.147 232.802 153.671 229.164 153.344 225.001C152.545 214.803 155.688 206.95 161.273 198.629C163.372 195.502 164.89 192.731 167.576 189.785C179.529 176.67 195.067 164.348 213.4 163.109Z"/></svg>